
        <svg xmlns="http://www.w3.org/2000/svg" xmlns:xlink="http://www.w3.org/1999/xlink" version="1.1" width="3160.377780517174" 
        height="972.5787203611246" viewBox="-32.07555610343476 0 3160.377780517174 972.5787203611246">
			
			<g transform="scale(8.01888902585869) translate(10, 10)">
				<defs id="SvgjsDefs2183"></defs><g id="SvgjsG2184" featureKey="HKaMnE-0" transform="matrix(0.21936002047910447,0,0,0.21936002047910447,-21.721369919819917,-1.550003254549992)" fill="#83b271"><path xmlns="http://www.w3.org/2000/svg" d="M410.8,108c-87.3-26.3-126.3,55.6-126.3,55.6s-36.9-84.6-125-61.3c-98.3,26.2-76.7,125.2-76.7,125.2s19.8,123,195.2,241.3  c179.4-112.3,205.1-233,205.1-233S508.1,137.5,410.8,108z M192.6,376.8c-14.3-29.7,51.7-28.6,51.7-28.6c18.5-24.7,9.7-53.7,9.7-53.7  s-27-39.7-32-60.6c-5-20.9,21.6-24.7,33.6-31.7s15.8-29.3,15.8-29.3s3.5,9.6,0.8,22c-1.4,9.3-17.7,20.3-24.5,24.5  c-1.3,0.8-2.7,1.6-4.2,2.1c-2.7,1-8.6,4.7-4.9,16.2c4.6,14.7,24.8,35.1,24.8,35.1l23.1-1.2c0,0,21.2-25.5,23.9-37.8  c2.7-12.4-19.3-22-19.3-22s-23.6-10-13.1-39c0.9,15.1,10.8,25.7,15,29.6c1.1,1,2.4,1.8,3.8,2.5c6.5,2.9,28.5,13.3,31.4,23.2  c3.5,11.6-32.8,66.4-32.8,66.4s-13.9,24.8,11.2,51.4c-15.8,0-30.5,7-30.5,7s29,3.9,34.4,9.3c5.4,5.4-1.9,7.3-23.2,7.1  c-21.2-0.3-45.9,16.1-45.9,16.1S206.9,400.7,192.6,376.8z M274.6,225.8c8.2,0,14.9,8,14.9,18c0,9.9-6.7,18-14.9,18  c-8.2,0-14.9-8-14.9-18C259.8,233.9,266.4,225.8,274.6,225.8z M319.6,386.5c0,0-39.4-10.4-57.9,0c0,0,26.3-19.7,54.8-13.1  c22.4,2.7-0.4-19.7-20.5-20.1c9.6-2.1,60.2-10.8,68,16.6C371.7,397.3,319.6,386.5,319.6,386.5z M272.3,291c0,0-0.9-4.3,3.3-5.5  c3.8-1,5.5,2.7,5.5,2.7s1.7-3.6,5.5-2.4c4.2,1.3,3.2,5.6,3.2,5.6s-1.1,5.3-8.9,10.2C273.1,296.4,272.3,291,272.3,291z"></path></g><g id="SvgjsG2185" featureKey="J3GnXt-0" transform="matrix(4.270798967953304,0,0,4.270798967953304,104.98545483517374,9.158500547633722)" fill="#fff"><path d="M8.32 5.48 c1 0 1.9367 0.18664 2.81 0.55998 s1.59 0.92 2.15 1.64 l-1.6 1.22 c-0.86666 -1.08 -2.0066 -1.62 -3.42 -1.62 c-1.5333 0 -2.7966 0.54666 -3.79 1.64 s-1.49 2.4666 -1.49 4.12 c0 1.6 0.49 2.92 1.47 3.96 s2.25 1.56 3.81 1.56 s2.7934 -0.63334 3.7 -1.9 l1.62 1.22 c-0.56 0.74666 -1.3067 1.3467 -2.24 1.8 s-1.9733 0.68 -3.12 0.68 c-1.36 0 -2.5934 -0.33 -3.7 -0.99 s-1.98 -1.5667 -2.62 -2.72 s-0.96 -2.3634 -0.96 -3.63 c0 -2.1866 0.68666 -3.99 2.06 -5.41 s3.1466 -2.13 5.32 -2.13 z M19.240000000000002 10.28 c1.2 0 2.15 0.27328 2.85 0.81994 s1.07 1.3067 1.11 2.28 l0 5.08 c0 0.48 0.02666 0.99334 0.08 1.54 l-1.6 0 c-0.04 -0.42666 -0.06 -0.90666 -0.06 -1.44 l-0.04 0 c-0.41334 0.61334 -0.89 1.0467 -1.43 1.3 s-1.17 0.38 -1.89 0.38 c-0.97334 0 -1.7633 -0.26 -2.37 -0.78 s-0.91 -1.2067 -0.91 -2.06 c0 -1.08 0.45334 -1.8967 1.36 -2.45 s2.1866 -0.83 3.84 -0.83 l1.34 0 l0 -0.34 c0 -0.64 -0.21 -1.1433 -0.63 -1.51 s-0.97 -0.55 -1.65 -0.55 c-0.50666 0 -0.95 0.07666 -1.33 0.23 s-0.83 0.43668 -1.35 0.85002 l-1.08 -1.12 c1.0267 -0.90666 2.28 -1.3733 3.76 -1.4 z M16.78 17.259999999999998 c0 1.0267 0.68002 1.54 2.04 1.54 c0.81334 0 1.4633 -0.24334 1.95 -0.73 s0.73666 -1.19 0.75 -2.11 l0 -0.52 l-1.02 0 c-1.1733 0 -2.0866 0.15 -2.74 0.45 s-0.98 0.75666 -0.98 1.37 z M27.76 4.880000000000001 l0 15.12 l-1.8 0 l0 -15.12 l1.8 0 z M35.38 10.28 c1.3733 0 2.36 0.58666 2.96 1.76 c0.30666 -0.56 0.72666 -0.99334 1.26 -1.3 s1.1133 -0.46 1.74 -0.46 c2.3866 0 3.5866 1.3733 3.6 4.12 l0 5.6 l-1.8 0 l0 -5.38 c0 -0.93334 -0.16666 -1.61 -0.5 -2.03 s-0.84668 -0.63 -1.54 -0.63 c-0.81334 0 -1.42 0.24666 -1.82 0.74 s-0.6 1.1733 -0.6 2.04 l0 5.26 l-1.8 0 l0 -5.1 c0 -1.12 -0.16 -1.89 -0.48 -2.31 s-0.82666 -0.63 -1.52 -0.63 c-0.74666 0 -1.3433 0.28666 -1.79 0.86 s-0.67 1.3 -0.67 2.18 l0 5 l-1.8 0 l0 -9.48 l1.68 0 l0 1.48 l0.04 0 c0.2 -0.46666 0.59666 -0.87 1.19 -1.21 s1.21 -0.51 1.85 -0.51 z M48.699999999999996 5.800000000000001 c0.36 0 0.67002 0.13002 0.93002 0.39002 s0.39 0.57 0.39 0.93 c0 0.37334 -0.13334 0.68668 -0.4 0.94002 s-0.57332 0.38 -0.91998 0.38 c-0.37334 0 -0.68668 -0.12666 -0.94002 -0.38 s-0.38 -0.56668 -0.38 -0.94002 s0.13334 -0.68668 0.4 -0.94002 s0.57332 -0.38 0.91998 -0.38 z M49.599999999999994 10.52 l0 9.48 l-1.8 0 l0 -9.48 l1.8 0 z M57.03999999999999 10.28 c1.4 0 2.5866 0.48338 3.56 1.45 s1.4667 2.1434 1.48 3.53 c0 1.4 -0.48666 2.5734 -1.46 3.52 s-2.1666 1.4333 -3.58 1.46 c-1.3867 0 -2.5666 -0.48 -3.54 -1.44 s-1.4733 -2.14 -1.5 -3.54 c0 -1.3733 0.48334 -2.54 1.45 -3.5 s2.1634 -1.4533 3.59 -1.48 z M53.919999999999995 15.26 c0 0.97334 0.28664 1.7633 0.85998 2.37 s1.3267 0.91666 2.26 0.93 c0.94666 0 1.7 -0.30334 2.26 -0.91 s0.84666 -1.4033 0.86 -2.39 c0 -0.97334 -0.28 -1.7633 -0.84 -2.37 s-1.3267 -0.91666 -2.3 -0.93 c-0.94666 0 -1.7 0.31334 -2.26 0.94 s-0.84 1.4133 -0.84 2.36 z"></path></g>
			</g>
		</svg>
	